<svg aria-hidden="true" style="position: absolute; width: 0; height: 0; overflow: hidden;" version="1.1" xmlns="http://www.w3.org/2000/svg" xmlns:xlink="http://www.w3.org/1999/xlink">
    <defs>
        <symbol id="icon-facebook" viewBox="0 0 24 24">
            <path d="M15.997 3.985h2.191v-3.816c-0.378-0.052-1.678-0.169-3.192-0.169-3.159 0-5.323 1.987-5.323 5.639v3.361h-3.486v4.266h3.486v10.734h4.274v-10.733h3.345l0.531-4.266h-3.877v-2.939c0.001-1.233 0.333-2.077 2.051-2.077z"></path>
        </symbol>
        <symbol id="icon-instagram" viewBox="0 0 24 24">
            <path d="M23.976 7.056c-0.056-1.275-0.263-2.152-0.558-2.912-0.305-0.806-0.774-1.528-1.388-2.128-0.6-0.609-1.327-1.083-2.124-1.383-0.764-0.295-1.636-0.502-2.912-0.558-1.285-0.061-1.693-0.075-4.951-0.075s-3.666 0.014-4.946 0.070c-1.275 0.056-2.152 0.263-2.911 0.558-0.807 0.305-1.528 0.774-2.129 1.388-0.609 0.6-1.083 1.327-1.383 2.124-0.295 0.764-0.502 1.636-0.558 2.911-0.061 1.285-0.075 1.693-0.075 4.951s0.014 3.666 0.070 4.946c0.056 1.275 0.263 2.152 0.558 2.912 0.305 0.806 0.778 1.528 1.388 2.128 0.6 0.609 1.327 1.083 2.124 1.383 0.764 0.295 1.636 0.502 2.912 0.558 1.28 0.057 1.688 0.070 4.946 0.070s3.666-0.014 4.946-0.070c1.275-0.056 2.152-0.262 2.911-0.558 1.613-0.624 2.888-1.899 3.512-3.511 0.295-0.764 0.502-1.636 0.558-2.912 0.056-1.28 0.070-1.688 0.070-4.946s-0.005-3.666-0.061-4.946zM21.815 16.855c-0.052 1.172-0.249 1.805-0.413 2.227-0.403 1.045-1.233 1.875-2.279 2.279-0.422 0.164-1.059 0.361-2.227 0.413-1.266 0.056-1.646 0.070-4.848 0.070s-3.587-0.014-4.848-0.070c-1.172-0.051-1.805-0.248-2.227-0.413-0.52-0.192-0.994-0.497-1.378-0.895-0.399-0.389-0.703-0.858-0.896-1.378-0.164-0.422-0.361-1.060-0.412-2.227-0.056-1.266-0.070-1.646-0.070-4.848s0.014-3.587 0.070-4.848c0.051-1.172 0.248-1.805 0.412-2.227 0.192-0.52 0.497-0.994 0.9-1.378 0.389-0.399 0.858-0.703 1.378-0.895 0.422-0.164 1.060-0.361 2.227-0.413 1.266-0.056 1.646-0.070 4.848-0.070 3.207 0 3.587 0.014 4.848 0.070 1.172 0.052 1.805 0.249 2.227 0.413 0.52 0.192 0.994 0.497 1.378 0.895 0.398 0.389 0.703 0.858 0.895 1.378 0.164 0.422 0.361 1.059 0.413 2.227 0.056 1.266 0.070 1.646 0.070 4.848s-0.014 3.577-0.070 4.843z"></path>
            <path d="M12.045 5.837c-3.404 0-6.165 2.761-6.165 6.165s2.762 6.165 6.165 6.165c3.404 0 6.165-2.761 6.165-6.165s-2.761-6.165-6.165-6.165zM12.045 16.001c-2.208 0-3.999-1.791-3.999-3.999s1.791-3.999 3.999-3.999c2.208 0 3.999 1.791 3.999 3.999s-1.791 3.999-3.999 3.999z"></path>
            <path d="M19.893 5.593c0 0.795-0.644 1.439-1.439 1.439s-1.439-0.644-1.439-1.439c0-0.795 0.645-1.439 1.439-1.439s1.439 0.644 1.439 1.439z"></path>
        </symbol>
        <symbol id="icon-linkedin" viewBox="0 0 24 24">
            <path d="M23.994 24v-0.001h0.006v-8.802c0-4.306-0.927-7.623-5.961-7.623-2.42 0-4.044 1.328-4.707 2.587h-0.070v-2.185h-4.773v16.023h4.97v-7.934c0-2.089 0.396-4.109 2.983-4.109 2.549 0 2.587 2.384 2.587 4.243v7.801h4.965z"></path>
            <path d="M0.396 7.977h4.976v16.023h-4.976v-16.023z"></path>
            <path d="M2.882-0c-1.591 0-2.882 1.291-2.882 2.882s1.291 2.909 2.882 2.909c1.591 0 2.882-1.318 2.882-2.909-0.001-1.591-1.292-2.882-2.882-2.882v0z"></path>
        </symbol>
        <symbol id="icon-twitter" viewBox="0 0 24 24">
            <path d="M24 4.558c-0.893 0.392-1.843 0.651-2.835 0.777 1.020-0.609 1.799-1.566 2.165-2.72-0.951 0.567-2.001 0.967-3.12 1.191-0.903-0.962-2.19-1.557-3.594-1.557-2.724 0-4.917 2.211-4.917 4.921 0 0.39 0.033 0.765 0.114 1.122-4.090-0.2-7.71-2.16-10.142-5.147-0.424 0.737-0.674 1.58-0.674 2.487 0 1.704 0.877 3.215 2.186 4.089-0.791-0.015-1.566-0.244-2.223-0.606 0 0.015 0 0.034 0 0.054 0 2.391 1.705 4.377 3.942 4.834-0.401 0.11-0.837 0.162-1.29 0.162-0.315 0-0.633-0.018-0.931-0.084 0.637 1.949 2.447 3.381 4.597 3.428-1.674 1.309-3.8 2.098-6.101 2.098-0.403 0-0.79-0.018-1.177-0.067 2.18 1.405 4.762 2.208 7.548 2.208 9.054 0 14.004-7.5 14.004-14.001 0-0.217-0.008-0.428-0.018-0.636 0.976-0.693 1.797-1.558 2.466-2.554z"></path>
        </symbol>
    </defs>
</svg>
